<svg xmlns="http://www.w3.org/2000/svg" viewBox="0 0 96 96" role="img" aria-label="Red Scarf Panda">
  <circle cx="48" cy="48" r="45" fill="#f8ecd8"/>
  <circle cx="29" cy="34" r="13" fill="#191514"/>
  <circle cx="67" cy="34" r="13" fill="#191514"/>
  <circle cx="48" cy="49" r="29" fill="#fff8ea" stroke="#4d3527" stroke-width="3"/>
  <ellipse cx="38" cy="48" rx="8" ry="10" fill="#191514"/>
  <ellipse cx="58" cy="48" rx="8" ry="10" fill="#191514"/>
  <circle cx="40" cy="45" r="2" fill="#fff"/>
  <circle cx="60" cy="45" r="2" fill="#fff"/>
  <path d="M45 57h6l-3 4Z" fill="#191514"/>
  <path d="M40 65c5 4 11 4 16 0" fill="none" stroke="#7b4f2b" stroke-width="3" stroke-linecap="round"/>
  <path d="M25 72c14 12 32 12 46 0" fill="#a8332a"/>
  <path d="M50 73l19 14 2-17" fill="#c44638"/>
  <path d="M45 73 28 87l-3-17" fill="#8f2822"/>
  <path d="M28 73c10 8 30 8 40 0" fill="none" stroke="#f0c47a" stroke-width="3" stroke-linecap="round"/>
</svg>
