<svg xmlns="http://www.w3.org/2000/svg" viewBox="0 0 96 96" role="img" aria-label="Ink Brush Panda">
  <circle cx="48" cy="48" r="45" fill="#f8ecd8"/>
  <circle cx="29" cy="35" r="13" fill="#191514"/>
  <circle cx="67" cy="35" r="13" fill="#191514"/>
  <circle cx="48" cy="50" r="28" fill="#fff8ea" stroke="#4d3527" stroke-width="3"/>
  <ellipse cx="38" cy="49" rx="8" ry="10" fill="#191514"/>
  <ellipse cx="58" cy="49" rx="8" ry="10" fill="#191514"/>
  <circle cx="40" cy="46" r="2" fill="#fff"/>
  <circle cx="60" cy="46" r="2" fill="#fff"/>
  <path d="M45 58h6l-3 4Z" fill="#191514"/>
  <path d="M40 66c5 4 11 4 16 0" fill="none" stroke="#9b2f25" stroke-width="3" stroke-linecap="round"/>
  <path d="M68 70l14-25" stroke="#4d3527" stroke-width="5" stroke-linecap="round"/>
  <path d="M66 73c7 1 12 5 14 11-8-1-13-4-17-9Z" fill="#191514"/>
  <path d="M78 48l5-9" stroke="#c49b4d" stroke-width="5" stroke-linecap="round"/>
</svg>
