<svg xmlns="http://www.w3.org/2000/svg" viewBox="0 0 96 96" role="img" aria-label="Tea Panda">
  <circle cx="48" cy="48" r="45" fill="#f8ecd8"/>
  <circle cx="30" cy="35" r="13" fill="#191514"/>
  <circle cx="66" cy="35" r="13" fill="#191514"/>
  <circle cx="48" cy="50" r="28" fill="#fff8ea" stroke="#4d3527" stroke-width="3"/>
  <ellipse cx="38" cy="49" rx="8" ry="10" fill="#191514"/>
  <ellipse cx="58" cy="49" rx="8" ry="10" fill="#191514"/>
  <circle cx="40" cy="46" r="2" fill="#fff"/>
  <circle cx="60" cy="46" r="2" fill="#fff"/>
  <path d="M45 58h6l-3 4Z" fill="#191514"/>
  <path d="M40 66c5 4 11 4 16 0" fill="none" stroke="#6f7f42" stroke-width="3" stroke-linecap="round"/>
  <path d="M23 75h27c0 9-6 14-14 14s-13-5-13-14Z" fill="#d9b06a" stroke="#8b6237" stroke-width="3"/>
  <path d="M50 78c8-2 11 3 6 8" fill="none" stroke="#8b6237" stroke-width="3" stroke-linecap="round"/>
  <path d="M32 69c-3-5 4-6 1-11M42 69c-3-5 4-6 1-11" fill="none" stroke="#8f6f3b" stroke-width="2" stroke-linecap="round"/>
</svg>
