<svg xmlns="http://www.w3.org/2000/svg" viewBox="0 0 96 96" role="img" aria-label="Bamboo Hat Panda">
  <circle cx="48" cy="48" r="45" fill="#f6ead3"/>
  <path d="M20 32c8-12 48-12 56 0-15 7-41 7-56 0Z" fill="#c49b4d"/>
  <path d="M29 29c10-9 28-9 38 0" fill="none" stroke="#6b4b2f" stroke-width="4" stroke-linecap="round"/>
  <circle cx="31" cy="39" r="12" fill="#191514"/>
  <circle cx="65" cy="39" r="12" fill="#191514"/>
  <circle cx="48" cy="53" r="28" fill="#fff9ec" stroke="#4d3527" stroke-width="3"/>
  <ellipse cx="37" cy="50" rx="8" ry="10" fill="#191514"/>
  <ellipse cx="59" cy="50" rx="8" ry="10" fill="#191514"/>
  <circle cx="39" cy="47" r="2" fill="#fff"/>
  <circle cx="61" cy="47" r="2" fill="#fff"/>
  <path d="M45 58h6l-3 4Z" fill="#191514"/>
  <path d="M40 66c5 4 11 4 16 0" fill="none" stroke="#9b2f25" stroke-width="3" stroke-linecap="round"/>
  <path d="M21 74c15 12 39 12 54 0" fill="none" stroke="#9b2f25" stroke-width="6" stroke-linecap="round"/>
</svg>
